<svg width="20" height="20" viewBox="0 0 20 20" fill="none" xmlns="http://www.w3.org/2000/svg">
<path fill-rule="evenodd" clip-rule="evenodd" d="M10.5 0L18 13.0613L10.5 20L3 13.0613L10.5 0ZM10.5 4.82587L7.37003 10.2767C8.30604 10.0054 9.37945 9.80213 10.5 9.80213C11.6205 9.80213 12.694 10.0054 13.63 10.2767L10.5 4.82587ZM14.3809 13.1199C14.3263 13.0967 14.2705 13.0735 14.2135 13.0502C13.1841 12.6294 11.8495 12.2352 10.5 12.2352C9.15054 12.2352 7.81584 12.6294 6.78647 13.0502C6.72952 13.0735 6.67371 13.0967 6.61909 13.1199L10.5 16.7104L14.3809 13.1199Z" fill="white"/>
</svg>
