<svg width="20" height="20" viewBox="0 0 20 20" fill="none" xmlns="http://www.w3.org/2000/svg">
<path fill-rule="evenodd" clip-rule="evenodd" d="M3.13517 17.5415H14.9357L14.3721 15.7167C14.4557 15.7895 19.2069 19.8621 19.2069 19.8621V2.04828C19.1506 0.94097 18.1972 0 17.0154 0L3.13931 0.00248003C1.95834 0.00248003 1 0.9451 1 2.05241V15.4924C1 16.6601 1.95669 17.5415 3.13517 17.5415ZM11.8646 4.70317L11.8372 4.7131L11.8472 4.70317H11.8646ZM5.54924 5.75338C7.06621 4.64938 8.4723 4.70234 8.4723 4.70234L8.5857 4.81407C6.72938 5.25683 5.88772 6.08607 5.88772 6.08607C5.8936 6.08483 5.91655 6.07359 5.95565 6.05444C6.4893 5.79308 10.032 4.05799 14.2637 6.14069C14.2637 6.14069 13.4204 5.36524 11.6783 4.86869L11.8323 4.71724C12.0731 4.71807 13.3476 4.76276 14.7114 5.76C14.7114 5.76 16.2375 8.3669 16.2375 11.5697C16.2284 11.5586 16.1917 11.5965 16.124 11.6664C15.8172 11.9833 14.8741 12.9574 12.9843 12.9981C12.9843 12.9981 12.5937 12.5561 12.3156 12.1705C13.6646 11.7832 14.1694 11.0086 14.1694 11.0086C11.5434 12.6621 9.2419 12.4039 6.48855 11.2866C6.4629 11.2866 6.45131 11.275 6.43807 11.2618V11.2568L6.4358 11.2547C6.42345 11.243 6.41177 11.232 6.38759 11.232H6.33793C6.1691 11.1211 6.05655 11.0665 6.05655 11.0665C6.05655 11.0665 6.56055 11.8411 7.85572 12.2284C7.51559 12.6166 7.17876 13.0577 7.17876 13.0577C4.8731 13.003 4.03228 11.563 4.03228 11.563C4.03228 8.3553 5.54924 5.75338 5.54924 5.75338ZM12.0141 10.569C12.6025 10.569 13.0817 10.0725 13.0817 9.4601C13.0817 8.8518 12.605 8.3552 12.0141 8.3552V8.3577C11.4282 8.3577 10.9482 8.8526 10.9465 9.465C10.9465 10.0725 11.4257 10.569 12.0141 10.569ZM9.2598 9.4601C9.2598 10.0725 8.7807 10.569 8.1923 10.569C7.60384 10.569 7.12467 10.0725 7.12467 9.465C7.12467 8.8526 7.60384 8.3577 8.1923 8.3577L8.1956 8.3552C8.784 8.3552 9.2598 8.8518 9.2598 9.4601Z" fill="white"/>
</svg>
