<svg width="104" height="24" viewBox="0 0 104 24" fill="none" xmlns="http://www.w3.org/2000/svg">
<path fill-rule="evenodd" clip-rule="evenodd" d="M58.3632 9.84086C57.566 9.39215 56.6758 9.16779 55.6926 9.16779C54.4171 9.16779 53.4139 9.53732 52.6832 10.2764V5.38672H48.8965V20.0755H52.5038V19.0065C53.208 19.8379 54.2709 20.2536 55.6926 20.2536C56.6758 20.2536 57.566 20.0293 58.3632 19.5806C59.1737 19.1187 59.8114 18.4654 60.2764 17.6208C60.7547 16.7761 60.9939 15.7995 60.9939 14.6909C60.9939 13.5823 60.7547 12.6123 60.2764 11.7809C59.8114 10.9362 59.1737 10.2896 58.3632 9.84086ZM56.5296 16.5914C56.1045 17.0401 55.5597 17.2644 54.8954 17.2644C54.2311 17.2644 53.6863 17.0401 53.2611 16.5914C52.836 16.1294 52.6234 15.496 52.6234 14.6909C52.6234 13.8991 52.836 13.2788 53.2611 12.8301C53.6863 12.3814 54.2311 12.157 54.8954 12.157C55.5597 12.157 56.1045 12.3814 56.5296 12.8301C56.9548 13.2788 57.1674 13.8991 57.1674 14.6909C57.1674 15.496 56.9548 16.1294 56.5296 16.5914ZM73.516 20.0755V9.34595H69.7294V14.5128C69.7294 15.3706 69.5367 16.0107 69.1514 16.433C68.7794 16.8421 68.2944 17.0467 67.6965 17.0467C67.1119 17.0467 66.6668 16.8619 66.3612 16.4924C66.0557 16.1228 65.9029 15.5356 65.9029 14.7305V9.34595H62.1162V15.3442C62.1162 16.9807 62.5281 18.208 63.3518 19.0263C64.1889 19.8445 65.305 20.2536 66.7 20.2536C67.3245 20.2536 67.9158 20.1415 68.4738 19.9171C69.0318 19.6928 69.5101 19.3628 69.9087 18.9273V20.0755H73.516ZM82.8109 19.64C82.4921 19.8379 82.1001 19.9897 81.6351 20.0953C81.1833 20.2009 80.6984 20.2536 80.1802 20.2536C78.7718 20.2536 77.689 19.9105 76.9316 19.2242C76.1743 18.538 75.7956 17.5152 75.7956 16.1558V12.5529H74.2212V9.74188H75.7956V6.95062H79.5823V9.74188H82.0536V12.5529H79.5823V16.1162C79.5823 16.499 79.682 16.8025 79.8813 17.0269C80.0938 17.238 80.3729 17.3436 80.7183 17.3436C81.1568 17.3436 81.5421 17.2314 81.8742 17.0071L82.8109 19.64ZM85.6537 19.541C86.5838 20.0161 87.6268 20.2536 88.7827 20.2536C89.9519 20.2536 91.0015 20.0161 91.9316 19.541C92.8616 19.0659 93.5858 18.406 94.104 17.5614C94.6221 16.7167 94.8812 15.7599 94.8812 14.6909C94.8812 13.6219 94.6221 12.6717 94.104 11.8403C93.5858 10.9956 92.8616 10.3424 91.9316 9.88045C91.0015 9.40534 89.9519 9.16779 88.7827 9.16779C87.6135 9.16779 86.5638 9.40534 85.6338 9.88045C84.717 10.3424 83.9929 10.9956 83.4614 11.8403C82.9433 12.6849 82.6842 13.6351 82.6842 14.6909C82.6842 15.7599 82.9433 16.7167 83.4614 17.5614C83.9929 18.406 84.7237 19.0659 85.6537 19.541ZM90.4169 16.5914C89.9918 17.0401 89.447 17.2644 88.7827 17.2644C88.1184 17.2644 87.5736 17.0401 87.1485 16.5914C86.7233 16.1294 86.5107 15.496 86.5107 14.6909C86.5107 13.8991 86.7233 13.2788 87.1485 12.8301C87.5736 12.3814 88.1184 12.157 88.7827 12.157C89.447 12.157 89.9918 12.3814 90.4169 12.8301C90.8421 13.2788 91.0547 13.8991 91.0547 14.6909C91.0547 15.496 90.8421 16.1294 90.4169 16.5914ZM99.6447 10.6327C100.03 10.1444 100.528 9.78147 101.139 9.54392C101.764 9.29317 102.475 9.16779 103.272 9.16779V12.5529C102.927 12.5133 102.641 12.4935 102.415 12.4935C101.604 12.4935 100.967 12.7113 100.502 13.1468C100.05 13.5823 99.8241 14.2488 99.8241 15.1462V20.0755H96.0375V9.34595H99.6447V10.6327ZM29.1502 20.0953C29.6152 19.9897 30.0072 19.8379 30.3261 19.6399L29.3894 17.0071C29.0572 17.2314 28.6719 17.3436 28.2334 17.3436C27.888 17.3436 27.609 17.238 27.3964 17.0269C27.1971 16.8025 27.0974 16.499 27.0974 16.1162V12.5529H29.5687V9.74186H27.0974V6.9506H23.3108V9.74186H21.7363V12.5529H23.3108V16.1558C23.3108 17.5152 23.6894 18.538 24.4468 19.2242C25.2041 19.9105 26.287 20.2536 27.6953 20.2536C28.2135 20.2536 28.6985 20.2008 29.1502 20.0953ZM36.2904 9.5439C35.6792 9.78145 35.1809 10.1444 34.7956 10.6327V9.34593H31.1883V20.0755H34.975V15.1462C34.975 14.2488 35.2009 13.5823 35.6526 13.1468C36.1176 12.7113 36.7554 12.4935 37.5659 12.4935C37.7917 12.4935 38.0774 12.5133 38.4228 12.5529V9.16777C37.6257 9.16777 36.9148 9.29314 36.2904 9.5439ZM47.2335 14.7234C46.7509 14.1608 46.0533 13.7857 45.1406 13.5981L47.4224 11.16V9.22196H39.4597V11.6132H43.803L41.8359 13.7232V15.6768H43.142C44.2646 15.6768 44.8258 16.0311 44.8258 16.7396C44.8258 17.1043 44.6685 17.3856 44.3537 17.5836C44.039 17.7815 43.6141 17.8805 43.0791 17.8805C42.5545 17.8805 42.0195 17.8024 41.474 17.6461C40.9389 17.4898 40.4563 17.2658 40.0262 16.974L38.8932 19.3028C39.4492 19.6466 40.1049 19.9123 40.8602 20.0999C41.6261 20.2874 42.3972 20.3812 43.1735 20.3812C44.2331 20.3812 45.1196 20.2145 45.833 19.8811C46.5569 19.5372 47.0919 19.0892 47.4381 18.537C47.7948 17.9847 47.9731 17.3856 47.9731 16.7396C47.9731 15.9477 47.7266 15.2757 47.2335 14.7234Z" fill="white"/>
<path fill-rule="evenodd" clip-rule="evenodd" d="M19.1943 15.6736L9.96043 0L0.726562 15.6736L9.96043 24L19.1943 15.6736ZM6.10687 12.3321L9.96043 5.79104L13.814 12.3321C12.6616 12.0065 11.34 11.7626 9.96043 11.7626C8.58083 11.7626 7.25926 12.0065 6.10687 12.3321ZM14.5325 15.6602C14.6026 15.6881 14.6713 15.7161 14.7385 15.7439L9.96043 20.0525L5.18233 15.7439C5.24957 15.7161 5.31829 15.6881 5.3884 15.6602C6.65575 15.1553 8.299 14.6822 9.96043 14.6822C11.6219 14.6822 13.2651 15.1553 14.5325 15.6602Z" fill="white"/>
</svg>
