<svg width="21" height="20" viewBox="0 0 21 20" fill="none" xmlns="http://www.w3.org/2000/svg">
<g clip-path="url(#clip0_3219_8563)">
<path d="M11.7812 9.6382C11.7812 12.7521 9.25579 15.2766 6.14049 15.2766C3.02519 15.2766 0.5 12.7529 0.5 9.6382C0.5 6.52351 3.02538 4 6.14049 4C9.2556 4 11.7812 6.52427 11.7812 9.6382ZM17.9691 9.6382C17.9691 12.5696 16.7063 14.9457 15.1487 14.9457C13.5912 14.9457 12.3284 12.5688 12.3284 9.6382C12.3284 6.70758 13.5912 4.33067 15.1487 4.33067C16.7063 4.33067 17.9691 6.70758 17.9691 9.6382ZM20.5 9.6382C20.5 12.2646 20.0558 14.3935 19.508 14.3935C18.9603 14.3935 18.5161 12.2638 18.5161 9.6382C18.5161 7.01258 18.9603 4.88288 19.5082 4.88288C20.0562 4.88288 20.5 7.01201 20.5 9.6382Z" fill="white"/>
</g>
<defs>
<clipPath id="clip0_3219_8563">
<rect width="20" height="20" fill="white" transform="translate(0.5)"/>
</clipPath>
</defs>
</svg>
